<?xml version="1.0"?><svg viewBox="0 0 32 32" xmlns="http://www.w3.org/2000/svg"><defs><style>.cls-1{fill:#d8e1ef;}.cls-2{fill:#0593ff;}</style></defs><title/><g id="Shield"><path class="cls-1" d="M28,6C19.51,6,16.84,2.46,16.82,2.43A1,1,0,0,0,16,2h0a1,1,0,0,0-.82.42S12.49,6,4,6A1,1,0,0,0,3,7v8.76c0,9.25,7.11,12,11.35,13.66l1.27.5a.94.94,0,0,0,.76,0l1.27-.5C21.89,27.77,29,25,29,15.76V7A1,1,0,0,0,28,6Z"/><path class="cls-2" d="M29,7v8.76c0,9.25-7.11,12-11.35,13.66l-1.27.5A1,1,0,0,1,16,30V2h0a1,1,0,0,1,.81.43S19.51,6,28,6A1,1,0,0,1,29,7Z"/></g></svg>